<?xml version="1.0" standalone="no"?><!DOCTYPE svg PUBLIC "-//W3C//DTD SVG 1.1//EN" "http://www.w3.org/Graphics/SVG/1.1/DTD/svg11.dtd"><svg t="1558943621402" class="icon" style="" viewBox="0 0 1024 1024" version="1.1" xmlns="http://www.w3.org/2000/svg" p-id="816" xmlns:xlink="http://www.w3.org/1999/xlink" width="200" height="200"><defs><style type="text/css"></style></defs><path d="M838.25 62h-650.89285752c-69.10714248 0-125.35714248 56.25-125.35714248 125.35714248v649.28571504c0 69.10714248 56.25 125.35714248 125.35714248 125.35714248h649.28571504c69.10714248 0 125.35714248-56.25 125.35714248-125.35714248V187.35714248c0-69.10714248-56.25-125.35714248-123.75-125.35714248z m-527.14285752 126.96428584h401.78571504c8.03571416 0 16.07142832 6.42857168 16.07142832 16.07142832s-8.03571416 16.07142832-16.07142832 16.07142832h-401.78571504c-8.03571416 0-16.07142832-6.42857168-16.07142832-16.07142832s6.42857168-16.07142832 16.07142832-16.07142832z m-67.5 77.14285664h536.78571504c8.03571416 0 16.07142832 6.42857168 16.07142832 16.0714292s-8.03571416 16.07142832-16.07142832 16.07142832h-536.78571504c-8.03571416 0-16.07142832-6.42857168-16.07142832-16.07142832s6.42857168-16.07142832 16.07142832-16.0714292z m597.85714336 498.21428584c0 41.78571416-35.35714248 77.14285752-77.14285752 77.14285752h-504.64285664c-41.78571416 0-77.14285752-33.75-77.14285752-77.14285752V438.07142832c0-41.78571416 33.75-77.14285752 77.14285752-77.14285664h504.64285664c41.78571416 0 77.14285752 33.75 77.14285752 77.14285664v326.25000001z" p-id="817"></path><path d="M764.32142832 393.07142832h-504.64285664c-25.71428584 0-45 20.89285752-45 45v326.25000001c0 25.71428584 20.89285752 45 45 44.99999999h504.64285664c25.71428584 0 45-20.89285752 45.00000001-45V438.07142832c0-25.71428584-20.89285752-45-45-45z m-125.35714248 274.8214292c-20.89285752 0-36.96428584-16.07142832-36.96428584-36.96428584 0-9.64285752 3.21428584-19.28571416 9.64285752-25.71428584l-38.57142919-59.46428584h-3.21428585l-53.03571416 117.32142832c6.42857168 8.03571416 11.25 17.67857168 11.25 27.3214292 0 20.89285752-16.07142832 36.96428584-36.96428584 36.96428496s-36.96428584-16.07142832-36.96428496-36.96428496c0-6.42857168 1.60714248-12.85714248 4.82142832-17.67857168l-62.67857168-69.10714336c-3.21428584 0-6.42857168 1.60714248-11.25 1.60714336-20.89285752 0-36.96428584-16.07142832-36.96428583-36.96428584s16.07142832-36.96428584 36.96428583-36.96428584c20.89285752 0 36.96428584 16.07142832 36.96428584 36.96428584 0 6.42857168-3.21428584 12.85714248-6.42857167 19.28571416l61.07142919 67.5c4.82142832-1.60714248 9.64285752-3.21428584 14.46428496-3.21428584h3.21428585l54.64285751-117.32142832c-6.42857168-6.42857168-11.25-16.07142832-11.25-25.71428584 0-20.89285752 16.07142832-36.96428584 36.96428584-36.96428584 20.89285752 0 36.96428584 16.07142832 36.96428584 36.96428584 0 12.85714248-4.82142832 22.5-12.85714336 28.92857168l36.96428584 57.85714248h3.21428584c20.89285752 0 36.96428584 14.46428584 36.96428584 35.35714336 0 20.89285752-16.07142832 36.96428584-36.96428584 36.96428584z" p-id="818"></path></svg>