<?xml version="1.0" standalone="no"?><!DOCTYPE svg PUBLIC "-//W3C//DTD SVG 1.1//EN" "http://www.w3.org/Graphics/SVG/1.1/DTD/svg11.dtd"><svg t="1559024210185" class="icon" style="" viewBox="0 0 1024 1024" version="1.1" xmlns="http://www.w3.org/2000/svg" p-id="816" xmlns:xlink="http://www.w3.org/1999/xlink" width="200" height="200"><defs><style type="text/css"></style></defs><path d="M729.28341249 172.04256926l0 217.25890559 62.08248906 0L791.36590155 172.04256926c0-51.47289482-41.6978661-93.15353968-93.12439574-93.15353968L636.15769244 78.88902958l0 62.08116473 62.08381337 0C715.38456609 140.97019431 729.28341249 154.88493765 729.28341249 172.04256926zM248.14776613 203.05135776c25.72187478 0 46.56219852-20.8244255 46.56219852-46.53040464l0-93.12174711c0-25.73644741-20.84032242-46.59266677-46.56219852-46.59266678-25.72055047 0-46.56087292 20.85621936-46.56087291 46.59266678l0 93.12174711C201.58689193 182.22693227 222.42721566 203.05135776 248.14776613 203.05135776zM480.95478189 78.88770527L325.74922141 78.88770527l0 62.08116475L480.95478189 140.96886871 480.95478189 78.88770527zM558.55623716 203.05135776c25.72187478 0 46.56087292-20.8244255 46.56087292-46.53040464l0-93.12174711c0-25.73644741-20.83899812-46.59266677-46.56087292-46.59266678-25.72055047 0-46.5595486 20.85621936-46.55954858 46.59266678l0 93.12174711C511.99668858 182.22693227 532.83568669 203.05135776 558.55623716 203.05135776zM77.42191382 854.91683068L77.42191382 172.04256926c0-17.15763161 13.89752208-31.07237493 31.03925806-31.07237495l62.08248905 0 0-62.08116473-62.08248905 0c-51.44110096 0-93.1204215 41.68064485-93.1204215 93.15353968l0 682.87558702c0 51.44110096 41.67932055 93.1204215 93.1204215 93.1204215l186.24879148 0L294.70996336 885.95741303 108.46117188 885.95741303C91.31943721 885.95741303 77.42191382 872.07446227 77.42191382 854.91683068zM201.58689193 389.30147485l403.53154245 0c17.14306029 0 31.04058237-13.88295076 31.04058238-31.04190669 0-17.12583904-13.89619777-31.03925806-31.04058238-31.03925805L201.58689193 327.22031011c-17.14173468 0-31.043231 13.91341902-31.043231 31.03925805C170.54366093 375.41719977 184.44515725 389.30147485 201.58689193 389.30147485zM294.70996336 544.50570972L201.58689193 544.50570972c-17.14173468 0-31.043231 13.91209471-31.043231 31.07105062 0 17.09404518 13.90149632 31.00613988 31.043231 31.00613988l93.12307143 0c17.14173468 0 31.03925806-13.91209471 31.03925805-31.00613988C325.74922141 558.41780443 311.85037373 544.50570972 294.70996336 544.50570972zM1007.39680166 712.22977115c-9.50213746-25.55231229-24.09778203-42.80532288-55.17148258-39.2855717-4.57951975 0.48616773-12.74635005-8.91396658-15.24607625-15.27786884-14.77845408-38.10393012-28.81639604-76.51254405-42.21317778-115.16225538-8.42647454-24.46340236-25.49402571-40.49503033-49.08047029-47.01392377-31.88707188-8.85303008-64.73190661-14.21677724-97.15283572-21.09731675-47.36364716-7.03552941-90.16764573-7.27795113-141.99026265 0-18.44392367 2.84414977-37.02561727 5.14781947-55.36621479 8.66624632-48.72942257 9.40013562-86.87839227 30.64979363-100.79181127 83.48448835-8.30725015 31.40752702-20.7648146 61.84006735-32.39178518 92.27658191-2.25730451 5.88038314-9.83596523 14.66982809-13.9584586 14.12404816-34.01190499-4.30265555-47.28813804 16.49395161-56.3690185 43.46767726-1.6532367 6.25130202-0.7126938 11.97934388 0 16.67808675 13.08017651 3.45351613 26.11663906 6.91100649 35.314094 9.33257494-0.65043169 49.29374805-1.37902243 98.21525294-1.86121594 147.14073203-0.25831865 26.37760633-1.3035133 52.81217491 0.49809043 79.06128538 0.880932 12.12373669 5.3822927 30.9836201 11.98994099 35.64527054 4.88022804 6.55068599 92.26068498 6.30826429 108.56785412 0 7.47268334-2.84547538 11.16862246-41.31502582 17.36826076-64.20202363l320.24708488 0c7.86877191 21.64309668-7.19846907 48.3214113 17.29407593 64.20202363 7.32034207 5.09483142 101.59855977 5.42865789 105.82438191-1.84929324 4.47221807-2.81235722 10.91560238-20.09583605 11.11563312-31.2498859 1.23860257-62.26397426 0.87695776-124.58756071 0.3603205-186.91379579-0.07815775-13.63787914-3.11174119-27.30887645-4.79412185-40.74010196 11.89986182-3.27600516 24.84491831-6.8540442 37.78600058-10.42678472C1008.39430812 727.86928607 1009.65410617 720.05350219 1007.39680166 712.22977115zM544.93292935 823.78219491c-2.57655965 6.9732686-12.88411999 13.5862154-21.00856061 15.45935404-11.18319378 2.63882048-23.5864446 3.03225913-35.35913357 3.03225912-0.03179258 0.42920546-0.01722125 0.21195346 0 0-0.00529855 0-0.0119227-0.00264992-0.01722125-0.00264992-17.19737263-1.78305819-34.68220786-2.24008326-51.51661007-5.7571858-21.88551839-4.57686983-28.04011581-20.91848018-21.44703886-50.16540599 4.51725763-20.03887378 20.17399381-20.91583154 34.19471451-16.27934953 28.19245837 9.24514443 55.80601733 20.54888691 82.69628671 33.03956825C538.92934759 806.08408193 546.75043002 818.81453505 544.93292935 823.78219491zM460.29594336 683.06762595c16.15747651-45.34744005 30.11725942-87.30097488 46.50126073-128.22256205 3.12233957-7.88334324 15.17056843-14.79699965 24.31238539-17.00661464 22.19020091-5.30545926 45.1368109-10.6413881 67.73502311-10.46122721 68.66099468 0.48616773 137.33788498 2.96999701 205.96576149 6.06319266 28.17656144 1.24655103 47.07751019 15.63951492 54.97277612 44.86127102 9.20142916 34.0728415 21.40199929 67.29919349 33.53898297 104.76593892C748.60694385 714.29366777 607.51350883 713.56640262 460.29594336 683.06762595zM922.09216404 835.5177915c-18.06638194 4.20992519-36.90374428 4.88022804-52.09418258 6.69905301-17.36826076-1.42538631-31.46448929-1.15117204-44.84669969-4.06420678-16.70193213-3.63500133-21.96367614-23.34004865-7.29252374-30.49215254 31.95330693-15.52161615 65.69232067-27.95400959 99.65653617-38.46822612 13.59681379-4.21522374 22.97972816 7.12295994 23.44867465 22.21669494C941.55478834 809.05143034 946.7502973 829.84671188 922.09216404 835.5177915zM488.54668832 842.27115815C488.5930535 841.88301805 488.56390956 842.09232287 488.54668832 842.27115815L488.54668832 842.27115815z" p-id="817"></path></svg>