<?xml version="1.0" standalone="no"?><!DOCTYPE svg PUBLIC "-//W3C//DTD SVG 1.1//EN" "http://www.w3.org/Graphics/SVG/1.1/DTD/svg11.dtd"><svg t="1559024398007" class="icon" style="" viewBox="0 0 1024 1024" version="1.1" xmlns="http://www.w3.org/2000/svg" p-id="846" xmlns:xlink="http://www.w3.org/1999/xlink" width="200" height="200"><defs><style type="text/css"></style></defs><path d="M840.16545185 996.11685925c65.536 0 119.90660741-50.24426667 119.9066074-113.83845925s-54.37060741-113.83845925-119.9066074-113.83845925H183.3490963c-24.63668148 0-43.32657778-17.3549037-43.32657778-37.25842964 0-19.78216297 18.6898963-37.25842963 43.32657778-37.25842963h136.04788148c21.11715555 0 38.22933333-17.11217778 38.22933333-38.22933333-0.48545185-21.60260741-17.59762963-38.83614815-38.22933333-38.3506963H183.3490963c-65.536 0-119.90660741 50.24426667-119.90660741 113.83845926s54.37060741 113.83845925 119.90660741 113.83845926h656.69499259c24.63668148 0 43.44794075 17.3549037 43.44794074 37.25842963 0 19.78216297-18.6898963 37.25842963-43.44794074 37.25842963H292.21167408c-20.6317037-0.48545185-37.74388148 16.62672592-38.22933333 38.22933334 0 21.11715555 17.11217778 38.3506963 38.22933333 38.35069628h547.95377777zM547.80207408 26.66951111c-138.71786667-0.36408889-251.09997037 112.01801482-251.46405926 250.73588148 0 102.91579259 139.08195555 295.51881482 210.6861037 387.51194074 20.02488889 22.57351111 54.49197037 24.63668148 77.06548148 4.73315556l4.73315555-4.73315556c71.48278518-91.99312592 210.6861037-284.1106963 210.6861037-387.51194074-0.48545185-138.71786667-112.98891852-250.85724445-251.70678517-250.73588148z m0 392.36645926c-37.37979259 0-73.18186667-14.80628148-99.6389926-41.2634074-26.45712592-26.45712592-41.26340741-62.2592-41.2634074-99.6389926 0-37.37979259 14.80628148-73.18186667 41.2634074-99.51762962 26.45712592-26.33576297 62.2592-41.14204445 99.6389926-41.0206815 76.70139259 1.33499259 138.23241482 63.95828148 138.23241481 140.78103705 0 76.70139259-61.53102222 139.32468148-138.23241481 140.65967407z m0 0" p-id="847"></path></svg>