<?xml version="1.0" standalone="no"?><!DOCTYPE svg PUBLIC "-//W3C//DTD SVG 1.1//EN" "http://www.w3.org/Graphics/SVG/1.1/DTD/svg11.dtd"><svg t="1560138382589" class="icon" style="" viewBox="0 0 1024 1024" version="1.1" xmlns="http://www.w3.org/2000/svg" p-id="1090" xmlns:xlink="http://www.w3.org/1999/xlink" width="200" height="200"><defs><style type="text/css"></style></defs><path d="M732.3091745 171.8792987c41.18854709 5.79725753 84.04878041-1.66416535 117.68120874 4.05733496 54.46640162 9.26592629 82.07405571 55.58189351 76.09026454 123.7642542-21.98154991 0-43.9606143 0-65.94589006 0-1.85798079 120.95131679-1.01095955 240.80974795-1.01095955 362.16344606 0 61.25123447 5.10075305 125.66810897-1.01344386 180.57315882-5.78507632 51.90830945-43.80785232 83.52124837-90.29214147 91.30308645-45.83598277 7.67254953-106.66124902 2.02928826-157.24650799 2.02928827-106.07379888 0-213.55847012 2.0541264-317.53955647 0-50.63866353-1.00222506-87.94606918-17.07260131-110.58089164-47.68207365-22.63730676-30.60698802-20.28999171-76.92543954-20.28999173-131.87768259 0-153.09579515 0-304.9049669 0-456.50922336-20.96810484 0-41.93496937 0-62.90058991 0-10.21392517-62.73283838 16.94537895-107.81434281 62.90058991-122.74960885 33.78022294-10.98100948 78.81513733-2.11125558 126.81089905-5.07198031-3.87493251-67.524145-0.2260373-118.81770735 57.82840327-125.79354245 25.94590386-3.11844803 60.59426034 0 92.31778764 0 57.19996765 0 123.48491427 0 184.64178539 0 35.20475713 0 71.23169492-3.39787898 89.27621333 12.17324768C738.02594167 79.82857998 731.48326676 129.51261942 732.3091745 171.8792987zM351.86902691 113.03986305c0 20.28916038 0 40.57832197 0 60.86748236 105.84651882 0 211.69303764 0 317.53831492 0 0-21.30380573 0-42.60761023 0-63.91017321-105.50622071 0-211.01740882 0-316.52487107 0C351.70012001 110.16731458 351.78084822 111.60048374 351.86902691 113.03986305zM289.98436515 306.80215643c0 128.38665998 0 256.23681312 0 386.50994142 0 33.01630256-7.5908941 103.36083664 12.17374648 117.67762974 7.86288428 5.6966634 28.13673108 6.53743931 37.53716881 0 20.44896385-14.21247193 13.18843309-82.55503899 13.18843307-116.66298561 0-131.94847118 0-265.64059197 0-390.56851915-20.62656519 0-41.25685502 0-61.88466176 0C289.81669979 303.92836521 289.89618525 305.36153558 289.98436515 306.80215643zM478.6811675 306.80215643c0 115.57755168 0 250.53890818 0 374.33669374 0 29.53397438-6.8618595 99.44259577 5.07218784 119.706918 7.88523933 13.38784093 34.42231918 19.45707771 47.68154328 9.13179838 17.97993631-14.00134649 10.14685878-88.03809265 10.14685879-118.69227387 0-132.28254701 0-259.1726997 0-387.52458677-20.62780674 0-41.25933932 0-61.88590452 0C478.51350213 303.92836521 478.59423035 305.36153558 478.6811675 306.80215643zM669.40734183 306.80215643c0 124.39390466 0 262.85994439 0 391.58316328 0 40.10391052-7.81817295 101.61594672 18.26062093 112.60440788 11.35529165 4.78633923 31.50742596 1.08419118 36.52124066-3.0414493 17.02610595-14.01624986 9.13341493-89.16202533 9.13341493-118.69227387 0-131.61563811 0-257.83391573 0-385.49529729-20.96810484 0-41.93621091 0-62.90058991 0C669.23967647 303.92836521 669.32040468 305.36153558 669.40734183 306.80215643z" p-id="1091"></path></svg>