<?xml version="1.0" standalone="no"?><!DOCTYPE svg PUBLIC "-//W3C//DTD SVG 1.1//EN" "http://www.w3.org/Graphics/SVG/1.1/DTD/svg11.dtd"><svg t="1560138387827" class="icon" style="" viewBox="0 0 1024 1024" version="1.1" xmlns="http://www.w3.org/2000/svg" p-id="1210" xmlns:xlink="http://www.w3.org/1999/xlink" width="200" height="200"><defs><style type="text/css"></style></defs><path d="M283.008 790.336c17.856 1.28 36.16-4.16 50.752-16.192l4.928-1.6L183.424 617.28 181.888 622.208c-12.096 14.592-17.472 32.896-16.192 50.752l-55.104 172.416L283.008 790.336 283.008 790.336 283.008 790.336zM845.12 161.664l-50.816-50.816c-28.032-28.032-73.536-28.032-101.568 0l-49.216 49.216 152.32 152.32 49.216-49.216C873.152 235.2 873.152 189.696 845.12 161.664L845.12 161.664 845.12 161.664zM743.552 364.8l-152.32-152.32-353.92 353.92 152.32 152.384L743.552 364.8 743.552 364.8 743.552 364.8zM725.376 1024" p-id="1211"></path><path d="M64 892.032l896 0 0 64-896 0 0-64Z" p-id="1212"></path></svg>