<?xml version="1.0" standalone="no"?><!DOCTYPE svg PUBLIC "-//W3C//DTD SVG 1.1//EN" "http://www.w3.org/Graphics/SVG/1.1/DTD/svg11.dtd"><svg t="1560413862116" class="icon" style="" viewBox="0 0 1024 1024" version="1.1" xmlns="http://www.w3.org/2000/svg" p-id="9944" xmlns:xlink="http://www.w3.org/1999/xlink" width="200" height="200"><defs><style type="text/css"></style></defs><path d="M884.309333 959.957333V123.093333L751.957333 7.765333 311.637333 172.373333v41.130667l399.914667-134.784v941.653333h266.197333v-60.416h-93.44z m-715.946666-257.834666l209.664-41.898667v-106.453333l-209.664 55.125333v93.226667z m0 319.616H378.026667v-111.616l-209.664 15.189333v96.426667z m0-160.341334l209.664-20.266666v-106.197334l-209.664 35.242667v91.221333z m0-321.621333l209.664-57.770667V371.541333L168.362667 442.453333v97.322667zM610.645333 264.96l-118.4-71.978667L46.421333 353.792 46.208 1024h58.709333V386.176l333.525334-109.866667V1020.586667h172.16V264.96h0.042666z" p-id="9945"></path></svg>