<?xml version="1.0" standalone="no"?><!DOCTYPE svg PUBLIC "-//W3C//DTD SVG 1.1//EN" "http://www.w3.org/Graphics/SVG/1.1/DTD/svg11.dtd"><svg t="1560326668702" class="icon" style="" viewBox="0 0 1097 1024" version="1.1" xmlns="http://www.w3.org/2000/svg" p-id="15137" xmlns:xlink="http://www.w3.org/1999/xlink" width="214.2578125" height="200"><defs><style type="text/css"></style></defs><path d="M554.783 443.03c76.067 0 137.946-57.636 137.946-128.584S630.85 185.789 554.783 185.789 416.91 243.499 416.91 314.446s61.951 128.585 137.947 128.585z m0-194.046c38.327 0 69.265 29.622 69.265 66.194s-30.94 66.194-69.265 66.194c-38.18 0-69.193-29.696-69.193-66.194 0-36.572 31.013-66.194 69.193-66.194zM421.299 637.515a699.092 699.092 0 0 0 101.009 98.377l32.695 25.013 32.548-25.233a725.13 725.13 0 0 0 100.79-98.742c66.413-83.236 148.99-203.92 167.714-308.368 3.584-23.77 3.657-38.18 3.657-39.789 0.66-78.042-31.67-151.404-90.988-206.26A313.268 313.268 0 0 0 554.783 0.007c-80.09 0-155.94 29.257-213.356 82.431-59.61 55.223-92.16 128.95-91.573 207.578 0 1.243 0.146 15.725 3.584 38.4 20.04 111.76 113.224 241.003 167.86 309.098zM554.783 81.342c125.731 0 228.643 96.694 227.692 216.867 0 0 0 10.898-2.706 28.89-15.068 84.114-86.09 188.415-142.994 259.582-0.439 0.877-1.39 1.682-1.829 2.12-39.57 46.446-80.163 77.825-80.163 77.825s-40.52-30.94-80.164-77.385c-0.439-0.44-1.317-1.317-1.755-2.195-56.977-70.727-127.999-175.394-142.993-259.142-2.78-17.993-2.78-28.89-2.78-28.89-0.877-120.173 102.034-217.672 227.692-217.672z m-328.774 942.656h752.78c64.73 0 118.416-47.323 118.416-107.226s-53.686-107.227-118.417-107.227h-860.37c-24.358 0-42.862-16.384-42.862-35.108 0-18.651 18.504-35.108 42.861-35.108h134.436c20.844 0 37.74-16.091 37.74-35.986a36.937 36.937 0 0 0-37.74-36.06H118.417C53.687 667.284 0 714.608 0 774.511c0 59.83 53.687 107.154 118.417 107.154h860.297c24.357 0 42.862 16.384 42.862 35.108s-18.505 35.107-42.862 35.107H225.936a36.937 36.937 0 0 0-37.741 36.06c0 19.894 16.896 36.059 37.74 36.059z" p-id="15138"></path></svg>