<?xml version="1.0" standalone="no"?><!DOCTYPE svg PUBLIC "-//W3C//DTD SVG 1.1//EN" "http://www.w3.org/Graphics/SVG/1.1/DTD/svg11.dtd"><svg t="1558928019618" class="icon" style="" viewBox="0 0 1024 1024" version="1.1" xmlns="http://www.w3.org/2000/svg" p-id="785" xmlns:xlink="http://www.w3.org/1999/xlink" width="200" height="200"><defs><style type="text/css"></style></defs><path d="M398.85180587 74.37096107C263.78193707 186.48056747 185.1887456 260.75677013 67.53090987 389.7097248c-29.2594624 38.3606112-24.50804693 109.72898773 0 109.72898773 76.11979093 0 109.72898773 0 109.72898773 0s0 136.704976 0 274.32246827c0 40.35264747 5.75016213 109.72789547 48.209456 109.72789547 69.51823787 0 171.2474272 0 171.2474272 0L396.71677973 609.16114987l219.4579744 0 0 274.32792533c0 0 88.68872 0 158.19604374 0 31.9533504 0 61.26193067-29.034608 61.26193066-109.72789547 0-141.16713707 0-274.32246827 0-274.32246826s43.01815573 0 109.72789547 0c32.6279136 0 37.9229088-77.64356267 0-109.72898774C837.66187627 280.16848 716.4281984 174.2303648 599.08472213 77.9915552 506.44685867 5.65936107 456.13075627 15.2495136 398.85180587 74.37096107z" p-id="786"></path></svg>