<?xml version="1.0" standalone="no"?><!DOCTYPE svg PUBLIC "-//W3C//DTD SVG 1.1//EN" "http://www.w3.org/Graphics/SVG/1.1/DTD/svg11.dtd"><svg t="1560483544763" class="icon" style="" viewBox="0 0 1024 1024" version="1.1" xmlns="http://www.w3.org/2000/svg" p-id="1453" xmlns:xlink="http://www.w3.org/1999/xlink" width="200" height="200"><defs><style type="text/css"></style></defs><path d="M709.17688889 611.89688889c-23.66577778 0-40.84622222-15.81511111-40.84622222-40.84622222s15.81511111-40.84622222 40.84622222-40.84622222c23.66577778 0 40.84622222 15.81511111 40.84622222 40.84622222s-17.06666667 40.84622222-40.84622222 40.84622222z m0 0" p-id="1454"></path><path d="M801.33688889 57.79911111h-579.12888889c-22.41422222 0-39.48088889 17.06666667-39.48088889 39.48088889v829.21244445c0 22.41422222 17.06666667 39.48088889 39.48088889 39.48088888h579.12888889c22.41422222 0 39.48088889-17.06666667 39.48088889-39.48088888V97.28c0-22.41422222-17.06666667-39.48088889-39.48088889-39.48088889zM544.65422222 597.44711111c-18.432 0-32.88177778-14.44977778-32.88177777-32.88177778s14.44977778-32.88177778 32.88177777-32.88177778 32.88177778 14.44977778 32.88177778 32.88177778c0.11377778 18.432-14.44977778 32.88177778-32.88177778 32.88177778z m164.52266667 39.48088889c-35.49866667 0-65.76355555-28.89955555-65.76355556-65.76355555s29.01333333-65.76355555 65.76355556-65.76355556c35.49866667 0 65.76355555 28.89955555 65.76355556 65.76355556 0.11377778 36.864-30.15111111 65.76355555-65.76355556 65.76355555z m65.87733333-184.32H248.49066667V321.08088889h526.56355555v131.52711111z m0-197.40444445H248.49066667V123.56266667h526.56355555v131.64088888z m0 0" p-id="1455"></path></svg>