<?xml version="1.0" standalone="no"?><!DOCTYPE svg PUBLIC "-//W3C//DTD SVG 1.1//EN" "http://www.w3.org/Graphics/SVG/1.1/DTD/svg11.dtd"><svg t="1560415484446" class="icon" style="" viewBox="0 0 1024 1024" version="1.1" xmlns="http://www.w3.org/2000/svg" p-id="1418" xmlns:xlink="http://www.w3.org/1999/xlink" width="200" height="200"><defs><style type="text/css"></style></defs><path d="M471.58385778 530.64135111A227.19146667 227.19146667 0 0 0 591.58755555 327.91665778 221.36604445 221.36604445 0 0 0 376.04693333 104.22044445a221.36604445 221.36604445 0 0 0-216.12316445 223.69621333 227.19146667 227.19146667 0 0 0 122.33386667 203.30723555 277.87264 277.87264 0 0 0-245.25027555 280.20280889v15.72864c0 41.94304 27.37948445 67.57489778 83.30353778 79.80828445a990.32177778 990.32177778 0 0 0 186.4135111 9.90321778h153.79114667c145.05301333 0 269.71704889 0 269.71704889-89.71150223v-15.72864a276.70755555 276.70755555 0 0 0-258.64874666-280.78535111z" fill="" p-id="1419"></path><path d="M918.97628444 162.47466667h-332.63160889a227.77400889 227.77400889 0 0 1 62.91456 116.50844444h195.15164445a29.70965333 29.70965333 0 0 1 0 58.25422222h-192.23893334a233.01688889 233.01688889 0 0 1-21.55406222 85.05116445h213.79299556a29.70965333 29.70965333 0 0 1 0 58.25422222H591.58755555a217.87079111 217.87079111 0 0 1-58.25422222 43.69066667 258.64874667 258.64874667 0 0 1 127.57674667 41.36049778h184.08334222a29.70965333 29.70965333 0 0 1 0 58.25422222h-116.50844444a283.11552 283.11552 0 0 1 47.76846222 85.05116444h69.90506666a29.70965333 29.70965333 0 0 1 0 58.25422222h-58.25422222a291.27111111 291.27111111 0 0 1 3.49525334 36.70016v15.72864a68.73998222 68.73998222 0 0 1-43.10812445 65.24472889h170.10232889c26.79694222 0 47.76846222-40.77795555 47.76846222-90.87658667V256.26396445c0.58254222-50.09863111-20.97152-93.78929778-47.18592-93.78929778z" fill="" p-id="1420"></path></svg>