<?xml version="1.0" standalone="no"?><!DOCTYPE svg PUBLIC "-//W3C//DTD SVG 1.1//EN" "http://www.w3.org/Graphics/SVG/1.1/DTD/svg11.dtd"><svg t="1560326687275" class="icon" style="" viewBox="0 0 1024 1024" version="1.1" xmlns="http://www.w3.org/2000/svg" p-id="15261" xmlns:xlink="http://www.w3.org/1999/xlink" width="200" height="200"><defs><style type="text/css"></style></defs><path d="M652.613 241.021c-58.659-16.711-119.616 14.742-141.244 78-8.524 28.513-4.916 60.299 10.157 87.503 2.291 4.263 5.244 9.172 8.847 12.779l-62.923 140.257c-28.182-6.228-56.693-1.31-79.631 12.779l-87.829-98.315c3.604-7.206 7.538-14.419 10.157-21.959 20.652-59.978-10.817-124.202-70.462-144.846-59.978-20.652-124.531 11.801-144.846 70.783-21.628 59.645 9.503 123.882 69.475 144.518 29.494 10.157 60.626 7.538 85.858-5.898l91.43 102.25c-3.274 6.228-6.882 13.435-9.172 19.991-8.524 28.838-4.916 60.299 10.157 87.503s39.004 46.207 68.825 54.075c58.659 16.711 119.616-14.742 139.28-72.752l1.965-5.567c8.524-28.838 4.916-60.299-10.157-87.503-5.244-9.172-10.157-16.711-17.364-24.252l60.299-132.729c2.291 0.66 3.274 0.976 5.567 1.965 21.959 6.555 45.551 5.898 65.868-0.326l74.718 82.911c-0.976 3.274-2.291 6.555-3.274 9.829-20.652 59.978 10.817 124.202 70.462 144.846 59.978 20.652 124.531-11.801 144.846-70.783 20.652-59.978-10.817-124.202-70.462-144.846-33.754-11.468-69.799-5.567-97.66 11.468l-63.249-70.462c8.189-9.503 14.742-21.628 19.333-34.74l1.965-5.567c8.524-28.513 4.916-60.299-10.157-87.503-17.034-26.217-41.296-44.24-70.783-53.422zM155.141 398.976c8.524-24.908 36.384-38.669 61.287-30.15s38.669 36.384 29.82 61.606c-8.524 24.908-36.384 38.669-61.287 29.82-24.581-8.524-38.342-36.384-29.82-61.287zM484.499 647.38c5.567 11.801 7.206 24.581 4.263 36.701l-0.66 2.291c-8.524 24.908-35.066 38.014-59.317 30.807-12.451-2.953-22.948-11.468-28.513-23.265-5.567-11.801-7.538-24.581-3.604-39.004 8.189-23.922 35.066-38.014 59.317-30.807 12.122 4.263 21.628 12.451 28.513 23.265zM880.046 604.453c-8.524 24.908-36.384 38.669-61.287 30.15-25.237-8.524-38.669-36.384-30.15-61.606 8.524-24.908 36.384-38.669 61.606-29.82 24.908 8.524 38.669 36.384 29.82 61.287zM664.083 327.858c5.898 11.801 7.538 24.581 4.263 36.701l-0.66 2.291c-8.524 25.237-33.754 38.342-59.317 30.807-12.451-2.953-22.948-11.468-28.513-23.265-5.567-11.801-7.206-24.581-3.604-39.004 8.189-23.922 35.066-38.014 59.317-30.807 12.122 2.953 21.628 11.139 28.513 23.265z" p-id="15262"></path></svg>