<?xml version="1.0" standalone="no"?><!DOCTYPE svg PUBLIC "-//W3C//DTD SVG 1.1//EN" "http://www.w3.org/Graphics/SVG/1.1/DTD/svg11.dtd"><svg t="1559094766749" class="icon" style="" viewBox="0 0 1024 1024" version="1.1" xmlns="http://www.w3.org/2000/svg" p-id="1312" xmlns:xlink="http://www.w3.org/1999/xlink" width="200" height="200"><defs><style type="text/css"></style></defs><path d="M510.30158507 990.30914453c-64.30947307 0-126.7175072-12.60494933-185.4918496-37.46446826-56.74628587-24.00157867-107.7020224-58.35410453-151.44931734-102.10139947-43.74729493-43.74729493-78.0998208-94.70303147-102.10139946-151.44931733-24.85951893-58.7754336-37.46446827-121.18237547-37.46446827-185.4918496 0-64.30947307 12.60494933-126.7175072 37.46446827-185.4918496 24.00157867-56.74737707 58.35410453-107.7020224 102.10139946-151.44931734 43.74729493-43.74838613 94.70303147-78.0998208 151.44931734-102.10249066 58.7754336-24.85951893 121.18237547-37.46446827 185.4918496-37.46446827s126.7175072 12.60494933 185.4918496 37.46446827c56.74628587 24.00266987 107.7020224 58.35410453 151.44931733 102.10249066 43.74729493 43.74729493 78.0998208 94.70303147 102.10139947 151.44931734 24.85951893 58.7743424 37.46446827 121.18237547 37.46446826 185.4918496 0 64.30947307-12.60494933 126.7175072-37.46446826 185.4918496-24.00157867 56.74628587-58.35410453 107.7020224-102.10139947 151.44931733s-94.70303147 78.0998208-151.44931733 102.10139947C637.01909227 977.7041952 574.61105813 990.30914453 510.30158507 990.30914453zM510.30158507 104.96863467c-109.20287147 0-211.86968107 42.52587627-289.08864 119.7448352-77.21786667 77.21895893-119.7448352 179.88576853-119.7448352 289.08864s42.52587627 211.86968107 119.7448352 289.08864c77.21895893 77.21895893 179.88576853 119.7448352 289.08864 119.7448352s211.87077333-42.52587627 289.08864-119.7448352c77.21895893-77.21895893 119.7448352-179.88576853 119.7448352-289.08864s-42.52587627-211.86968107-119.7448352-289.08864C722.17235733 147.494512 619.50554773 104.96863467 510.30158507 104.96863467z" p-id="1313"></path><path d="M338.03139733 343.31002027l344.54146667 0 0 340.98309013-344.54146667 0 0-340.98309013Z" p-id="1314"></path></svg>