<?xml version="1.0" standalone="no"?><!DOCTYPE svg PUBLIC "-//W3C//DTD SVG 1.1//EN" "http://www.w3.org/Graphics/SVG/1.1/DTD/svg11.dtd"><svg t="1559094759251" class="icon" style="" viewBox="0 0 1024 1024" version="1.1" xmlns="http://www.w3.org/2000/svg" p-id="1082" xmlns:xlink="http://www.w3.org/1999/xlink" width="200" height="200"><defs><style type="text/css"></style></defs><path d="M514.42725925 29.3394963c-266.87715555 0-484.11685925 217.11834075-484.11685925 483.99549629 0.12136297 266.99851852 217.2397037 484.11685925 484.11685925 484.11685926 266.87715555 0 483.9954963-217.11834075 483.9954963-484.11685926 0-266.75579259-217.11834075-483.9954963-483.9954963-483.99549629z m-43.2052148 645.04414815c0 39.44296297-31.91845925 71.36142222-71.36142223 71.36142222s-71.36142222-31.91845925-71.36142222-71.36142222V353.49997037c0-39.44296297 31.91845925-71.36142222 71.36142222-71.36142222s71.36142222 31.91845925 71.36142223 71.36142222v320.88367408z m229.0119111 0c0 39.44296297-31.91845925 71.36142222-71.36142222 71.36142222s-71.36142222-31.91845925-71.36142222-71.36142222V353.49997037c0-39.44296297 31.91845925-71.36142222 71.36142222-71.36142222s71.36142222 31.91845925 71.36142222 71.36142222v320.88367408z" p-id="1083"></path></svg>