<?xml version="1.0" standalone="no"?><!DOCTYPE svg PUBLIC "-//W3C//DTD SVG 1.1//EN" "http://www.w3.org/Graphics/SVG/1.1/DTD/svg11.dtd"><svg t="1560415777128" class="icon" style="" viewBox="0 0 1024 1024" version="1.1" xmlns="http://www.w3.org/2000/svg" p-id="1392" xmlns:xlink="http://www.w3.org/1999/xlink" width="200" height="200"><defs><style type="text/css"></style></defs><path d="M333.08444444 311.75111111c-20.13866667 0-36.40888889 16.27022222-36.40888889 36.40888889s16.27022222 36.40888889 36.40888889 36.40888889 36.40888889-16.27022222 36.40888889-36.40888889-16.27022222-36.40888889-36.40888889-36.40888889z m0 0c-20.13866667 0-36.40888889 16.27022222-36.40888889 36.40888889s16.27022222 36.40888889 36.40888889 36.40888889 36.40888889-16.27022222 36.40888889-36.40888889-16.27022222-36.40888889-36.40888889-36.40888889z m0 0c-20.13866667 0-36.40888889 16.27022222-36.40888889 36.40888889s16.27022222 36.40888889 36.40888889 36.40888889 36.40888889-16.27022222 36.40888889-36.40888889-16.27022222-36.40888889-36.40888889-36.40888889z m0 0c-20.13866667 0-36.40888889 16.27022222-36.40888889 36.40888889s16.27022222 36.40888889 36.40888889 36.40888889 36.40888889-16.27022222 36.40888889-36.40888889-16.27022222-36.40888889-36.40888889-36.40888889zM842.80888888 38.68444445H187.44888888c-40.04977778 0-72.81777778 32.768-72.81777777 72.81777777v800.99555556c0 40.04977778 32.768 72.81777778 72.81777777 72.81777777h655.36c40.04977778 0 72.81777778-32.768 72.81777778-72.81777777V111.50222222c0-40.04977778-32.768-72.81777778-72.81777778-72.81777777zM369.49333333 439.18222222v145.63555556c0 2.50311111-0.22755555 4.89244445-0.68266667 7.28177777C401.23733333 605.98044445 424.10666666 638.29333333 424.10666666 675.84c0 50.28977778-40.73244445 91.02222222-91.02222222 91.02222222s-91.02222222-40.73244445-91.02222222-91.02222222c0-37.54666667 22.75555555-69.85955555 55.296-83.74044445-0.45511111-2.38933333-0.68266667-4.77866667-0.68266667-7.28177777V439.18222222c0-2.50311111 0.22755555-4.89244445 0.68266667-7.28177777C264.81777778 418.01955555 242.06222222 385.70666667 242.06222222 348.16c0-50.28977778 40.73244445-91.02222222 91.02222222-91.02222222s91.02222222 40.73244445 91.02222222 91.02222222c0 37.54666667-22.75555555 69.85955555-55.296 83.74044445 0.45511111 2.38933333 0.68266667 4.77866667 0.68266667 7.28177777z m408.00711111 262.37155556c-6.59911111 6.59911111-15.70133333 10.69511111-25.71377778 10.69511111H533.33333333c-20.02488889 0-36.40888889-16.384-36.40888889-36.40888889 0-10.01244445 4.096-19.11466667 10.69511111-25.71377778 6.59911111-6.59911111 15.70133333-10.69511111 25.71377778-10.69511111h218.45333333c20.02488889 0 36.40888889 16.384 36.40888889 36.40888889 0 10.01244445-4.096 19.11466667-10.69511111 25.71377778z m0-163.84c-6.59911111 6.59911111-15.70133333 10.69511111-25.71377778 10.69511111H606.15111111c-20.02488889 0-36.40888889-16.384-36.40888889-36.40888889 0-10.01244445 4.096-19.11466667 10.69511111-25.71377778 6.59911111-6.59911111 15.70133333-10.69511111 25.71377778-10.69511111h145.63555555c20.02488889 0 36.40888889 16.384 36.40888889 36.40888889 0 10.01244445-4.096 19.11466667-10.69511111 25.71377778z m0-163.84c-6.59911111 6.59911111-15.70133333 10.69511111-25.71377778 10.69511111H533.33333333c-20.02488889 0-36.40888889-16.384-36.40888889-36.40888889 0-10.01244445 4.096-19.11466667 10.69511111-25.71377778 6.59911111-6.59911111 15.70133333-10.69511111 25.71377778-10.69511111h218.45333333c20.02488889 0 36.40888889 16.384 36.40888889 36.40888889 0 10.01244445-4.096 19.11466667-10.69511111 25.71377778zM333.08444444 311.75111111c-20.13866667 0-36.40888889 16.27022222-36.40888889 36.40888889s16.27022222 36.40888889 36.40888889 36.40888889 36.40888889-16.27022222 36.40888889-36.40888889-16.27022222-36.40888889-36.40888889-36.40888889z m0 327.68c-20.13866667 0-36.40888889 16.27022222-36.40888889 36.40888889s16.27022222 36.40888889 36.40888889 36.40888889 36.40888889-16.27022222 36.40888889-36.40888889-16.27022222-36.40888889-36.40888889-36.40888889z m0-327.68c-20.13866667 0-36.40888889 16.27022222-36.40888889 36.40888889s16.27022222 36.40888889 36.40888889 36.40888889 36.40888889-16.27022222 36.40888889-36.40888889-16.27022222-36.40888889-36.40888889-36.40888889z m0 0c-20.13866667 0-36.40888889 16.27022222-36.40888889 36.40888889s16.27022222 36.40888889 36.40888889 36.40888889 36.40888889-16.27022222 36.40888889-36.40888889-16.27022222-36.40888889-36.40888889-36.40888889z m0 0c-20.13866667 0-36.40888889 16.27022222-36.40888889 36.40888889s16.27022222 36.40888889 36.40888889 36.40888889 36.40888889-16.27022222 36.40888889-36.40888889-16.27022222-36.40888889-36.40888889-36.40888889z m0 0c-20.13866667 0-36.40888889 16.27022222-36.40888889 36.40888889s16.27022222 36.40888889 36.40888889 36.40888889 36.40888889-16.27022222 36.40888889-36.40888889-16.27022222-36.40888889-36.40888889-36.40888889z" p-id="1393"></path></svg>